HIERARCHY
ROOT Hips
{
	OFFSET -0.179506 -22.333345 2.821913
	CHANNELS 6 Xposition Yposition Zposition Zrotation Yrotation Xrotation 
	JOINT LeftUpLeg
	{
		OFFSET 6.951974 -9.140623 -0.681533
		CHANNELS 3 Zrotation Yrotation Xrotation
		JOINT LeftLeg
		{
			OFFSET 3.427654 -37.519855 -0.449580
			CHANNELS 3 Zrotation Yrotation Xrotation
			JOINT LeftFoot
			{
				OFFSET -1.359570 -39.796059 -4.369333
				CHANNELS 3 Zrotation Yrotation Xrotation
				JOINT LeftToe
				{
					OFFSET 2.635814 -5.579078 11.928840
					CHANNELS 3 Zrotation Yrotation Xrotation
					End Site
					{
						OFFSET 0.000000 0.000000 0.000000
					}
				}
			}
		}
	}
	JOINT RightUpLeg
	{
		OFFSET -6.767048 -9.052170 -0.431982
		CHANNELS 3 Zrotation Yrotation Xrotation
		JOINT RightLeg
		{
			OFFSET -3.829005 -38.256897 -0.885003
			CHANNELS 3 Zrotation Yrotation Xrotation
			JOINT RightFoot
			{
				OFFSET 1.577377 -39.841461 -4.231180
				CHANNELS 3 Zrotation Yrotation Xrotation
				JOINT RightToe
				{
					OFFSET -2.537174 -4.814398 12.334795
					CHANNELS 3 Zrotation Yrotation Xrotation
					End Site
					{
						OFFSET 0.000000 0.000000 0.000000
					}
				}
			}
		}
	}
	JOINT Spine
	{
		OFFSET -0.253288 10.896323 -2.669631
		CHANNELS 3 Zrotation Yrotation Xrotation
		JOINT Spine1
		{
			OFFSET 0.548704 13.518043 0.109247
			CHANNELS 3 Zrotation Yrotation Xrotation
			JOINT Spine2
			{
				OFFSET 0.145701 5.292222 2.542457
				CHANNELS 3 Zrotation Yrotation Xrotation
				JOINT Neck
				{
					OFFSET -0.277840 21.387037 -4.285703
					CHANNELS 3 Zrotation Yrotation Xrotation
					JOINT Head
					{
						OFFSET 0.515184 6.496960 5.134897
						CHANNELS 3 Zrotation Yrotation Xrotation
						End Site
						{
							OFFSET 0.000000 0.000000 0.000000
						}
					}
				}
				JOINT LeftShoulder
				{
					OFFSET 7.884473 12.174932 -3.408961
					CHANNELS 3 Zrotation Yrotation Xrotation
					JOINT LeftArm
					{
						OFFSET 9.097692 3.046888 -0.886815
						CHANNELS 3 Zrotation Yrotation Xrotation
						JOINT LeftForeArm
						{
							OFFSET 25.961220 -1.277207 -2.745643
							CHANNELS 3 Zrotation Yrotation Xrotation
							JOINT LeftHand
							{
								OFFSET 24.923361 0.898606 -0.117091
								CHANNELS 3 Zrotation Yrotation Xrotation
								End Site
								{
									OFFSET 0.000000 0.000000 0.000000
								}
							}
						}
					}
				}
				JOINT RightShoulder
				{
					OFFSET -8.175920 11.883285 -3.861528
					CHANNELS 3 Zrotation Yrotation Xrotation
					JOINT RightArm
					{
						OFFSET -9.601238 3.255117 -0.914307
						CHANNELS 3 Zrotation Yrotation Xrotation
						JOINT RightForeArm
						{
							OFFSET -25.374195 -1.332924 -2.140099
							CHANNELS 3 Zrotation Yrotation Xrotation
							JOINT RightHand
							{
								OFFSET -25.529810 0.777228 -0.555919
								CHANNELS 3 Zrotation Yrotation Xrotation
								End Site
								{
									OFFSET 0.000000 0.000000 0.000000
								}
							}
						}
					}
				}
			}
		}
	}
}
MOTION
Frames: 9
Frame Time: 0.033333
-36.138283 -28.822903 86.151123 -133.510528 -4.583206 84.802371 -3.448846 -5.640013 -22.757247 -5.966481 8.802090 31.943607 11.567516 12.731003 -17.150218 nan nan nan -9.032762 -1.577342 13.682741 3.317468 3.755064 54.061302 7.686272 -4.857295 7.088623 nan nan nan -4.871893 9.848110 10.908846 0.985795 -1.144277 3.358593 -1.830848 3.408539 1.620861 5.424988 -4.974698 -1.901953 0.161655 -8.929422 6.684576 -27.766456 6.470278 2.484534 -50.319987 9.344121 9.832586 0.854493 -13.992030 15.870461 -6.340981 -8.784990 -2.826864 27.291296 4.435514 0.128074 55.406141 7.007227 17.024034 -19.064405 38.472335 -9.841201 0.780479 11.703326 -6.303818 
-37.366127 -28.007010 86.407639 -132.905567 -4.572468 84.545662 -4.151793 -5.400787 -21.281352 -5.904753 8.094196 31.544811 11.708240 12.805473 -17.524977 nan nan nan -8.795300 -1.300342 12.088004 2.950706 2.508578 56.521093 7.096461 -5.900903 5.928518 nan nan nan -4.835667 9.267313 11.382452 1.062580 -1.013423 3.030385 -1.737823 3.094285 1.817636 5.262786 -4.834269 -1.903845 -0.143837 -8.719331 6.812782 -27.894640 6.166595 2.514564 -50.780747 8.792927 9.835790 0.985511 -14.405201 15.464853 -6.095023 -8.643421 -2.880597 27.336631 4.416167 0.093025 55.586429 6.638865 16.863113 -18.636828 37.473925 -9.904145 1.322328 11.309612 -6.126389 
-38.601349 -27.164841 86.711082 -132.305889 -4.487412 84.136197 -4.759488 -5.099012 -19.447152 -5.951542 7.206079 30.907144 11.670205 12.934165 -17.861178 nan nan nan -8.490934 -1.098198 10.782259 2.417598 1.330089 58.448502 6.378490 -6.769014 4.604809 nan nan nan -4.712687 8.691605 12.066979 1.120894 -0.895068 2.688325 -1.628958 2.782278 1.951539 5.097961 -4.700696 -1.790269 -0.315173 -8.548423 6.847041 -27.963715 5.911425 2.508040 -51.207524 8.289569 9.909271 0.957259 -15.035819 15.435389 -5.770590 -8.763003 -3.159771 27.399965 4.361051 0.023012 55.684397 6.165705 16.703868 -18.156771 36.680983 -9.770047 1.637905 10.698898 -5.983134 
-39.822567 -26.279108 87.072670 -131.688502 -4.324926 83.560455 -5.297814 -4.744011 -17.223790 -5.962657 6.112755 29.963283 11.434677 13.097975 -18.147036 nan nan nan -8.093808 -0.963617 9.771359 1.780458 0.293766 59.921470 5.627419 -7.421166 3.240388 nan nan nan -4.507838 8.063092 12.977795 1.129035 -0.894740 2.332555 -1.560970 2.576616 2.066608 4.995254 -4.560741 -1.752271 -0.373166 -8.451098 6.906591 -27.856529 5.707912 2.354812 -51.576200 7.704511 10.149988 0.621498 -15.550456 15.555018 -5.200717 -9.038299 -3.956486 27.471067 4.368796 -0.221579 55.870338 5.464862 16.683285 -17.637991 35.871824 -9.562114 1.675407 10.428063 -5.941671 
-41.011845 -25.400116 87.474030 -131.073020 -4.106821 83.055302 -5.757890 -4.344590 -15.042257 -5.891656 4.862137 28.919027 11.185244 13.197468 -18.286371 nan nan nan -7.642480 -0.921557 8.635089 1.081834 -0.525022 61.203455 5.069144 -7.778948 1.855819 nan nan nan -4.257307 7.432332 13.844182 1.120610 -0.912420 1.905955 -1.462515 2.439309 2.145069 4.884821 -4.463646 -1.638394 -0.398378 -8.263318 7.000675 -27.774484 5.424301 2.323841 -51.980727 7.130927 10.437036 0.434896 -16.159975 15.548915 -4.436859 -9.321720 -4.691112 27.465900 4.333103 -0.424364 56.119260 4.682317 16.579040 -17.113666 35.012349 -9.067506 2.052628 10.581575 -5.887833 
-42.220467 -24.538534 87.877800 -130.429598 -3.852936 82.691931 -6.172989 -3.930025 -12.975961 -5.723717 3.564796 27.799041 10.936354 13.262748 -18.376041 nan nan nan -7.223621 -0.974338 7.270537 0.559778 -1.200327 62.271985 4.615637 -7.986826 0.558744 nan nan nan -3.968839 6.803942 14.315615 1.181444 -0.880770 1.663748 -1.335007 2.224523 2.231356 4.656989 -4.407062 -1.375206 -0.421399 -8.061679 7.017515 -27.816602 5.105660 2.383624 -52.396758 6.472511 10.638317 0.335282 -16.853266 15.114644 -3.621765 -9.565457 -5.464054 27.469558 4.180298 -0.499473 56.190205 3.975085 16.416453 -16.606679 34.285350 -8.460797 2.616985 10.624574 -5.600524 
-43.434151 -23.666937 88.282951 -129.658570 -3.547703 82.416243 -6.559375 -3.428212 -10.930884 -5.440476 2.172808 26.562694 10.698121 13.274090 -18.522655 nan nan nan -6.809821 -1.071953 5.920458 0.015393 -2.027867 62.937921 4.255763 -8.272134 -0.538455 nan nan nan -3.714998 6.029108 14.609503 1.301559 -0.930041 1.419417 -1.217218 2.030875 2.300460 4.451664 -4.343297 -1.016878 -0.511841 -7.887722 7.161324 -27.823323 4.896728 2.437516 -52.799315 5.800712 10.782410 0.119573 -17.553984 14.632316 -2.941300 -9.966707 -5.891633 27.493063 4.046577 -0.442865 56.227459 3.309831 16.249164 -16.017294 33.415435 -8.131357 3.028894 10.806007 -5.195699 
-44.609909 -22.821236 88.706329 -128.882722 -3.201326 82.200357 -6.827422 -2.932930 -8.870445 -5.173275 0.777194 25.135418 10.356036 13.325355 -18.564658 nan nan nan -6.418532 -1.077874 4.501089 -0.466642 -2.999908 63.420895 4.078655 -8.770528 -1.975756 nan nan nan -3.380101 5.191370 14.972708 1.376019 -0.939665 1.084647 -1.128236 1.787231 2.332010 4.325135 -4.281054 -0.754482 -0.668754 -7.609325 7.362794 -27.895897 4.748126 2.525197 -53.193824 5.146984 10.967937 0.141469 -18.371421 14.159916 -2.209494 -10.448515 -6.129686 27.424746 3.898120 -0.444404 56.335656 2.696445 16.104739 -15.322043 32.360579 -7.708722 3.691516 10.912636 -4.854202 
-45.787704 -21.989689 89.143295 -128.139711 -2.850921 81.940377 -6.960245 -2.466371 -6.731367 -5.006548 -0.563826 23.635287 10.003961 13.400870 -18.480943 nan nan nan -6.037729 -1.029020 3.154540 -0.880152 -3.923176 63.711712 3.977584 -9.201722 -3.504862 nan nan nan -3.019153 4.407627 15.344751 1.452987 -0.926361 0.853592 -1.015139 1.509874 2.308917 4.120947 -4.240666 -0.449270 -0.748898 -7.260648 7.364914 -27.929314 4.537535 2.666679 -53.688243 4.509932 11.093397 0.336614 -19.359911 13.686266 -1.688356 -10.795075 -6.596428 27.238372 3.742662 -0.435647 56.530225 1.932454 15.938191 -14.900501 31.625147 -7.095791 4.568901 10.708155 -4.572872 
